<?xml version="1.0" standalone="no"?>
<!DOCTYPE svg PUBLIC "-//W3C//DTD SVG 20010904//EN"
 "http://www.w3.org/TR/2001/REC-SVG-20010904/DTD/svg10.dtd">
<svg version="1.0" xmlns="http://www.w3.org/2000/svg"
 width="1536.000000pt" height="1536.000000pt" viewBox="0 0 1536.000000 1536.000000"
 preserveAspectRatio="xMidYMid meet">
<metadata>
Created by potrace 1.10, written by Peter Selinger 2001-2011
</metadata>
<g transform="translate(0.000000,1536.000000) scale(0.100000,-0.100000)"
fill="#000000" stroke="none">
<path d="M6500 15346 c0 -10 -19 -16 -62 -21 -258 -27 -658 -182 -906 -352
-35 -24 -66 -43 -69 -43 -7 0 -230 -176 -283 -224 -399 -363 -729 -801 -1010
-1341 -46 -88 -88 -163 -94 -167 -6 -4 -128 -5 -271 -2 -433 10 -770 -15
-1105 -82 -362 -72 -606 -154 -880 -295 -133 -69 -121 -62 -264 -158 l-110
-73 -51 15 c-153 48 -290 58 -436 32 -285 -49 -527 -231 -654 -491 -47 -98
-63 -150 -82 -284 -13 -88 -14 -120 -3 -200 33 -265 151 -471 356 -628 l42
-32 5 -182 c7 -252 31 -413 104 -703 22 -88 79 -272 103 -335 12 -30 25 -66
30 -80 14 -44 129 -309 169 -388 88 -178 239 -451 267 -483 8 -8 14 -18 14
-22 0 -5 63 -104 101 -159 26 -37 24 -60 -10 -110 -138 -209 -259 -419 -366
-638 -47 -96 -160 -354 -175 -400 -5 -14 -18 -50 -30 -80 -44 -114 -97 -298
-134 -465 -8 -38 -22 -100 -31 -137 -8 -37 -15 -82 -15 -101 0 -19 -7 -78 -15
-133 -8 -54 -15 -163 -15 -241 l0 -142 -60 -46 c-97 -74 -193 -194 -250 -310
-27 -56 -50 -110 -50 -119 0 -10 -5 -27 -12 -39 -6 -12 -17 -70 -23 -129 -25
-241 35 -468 172 -649 48 -64 158 -168 218 -208 235 -153 513 -190 778 -104
l48 15 92 -63 c181 -123 318 -195 567 -297 182 -75 474 -152 745 -196 301 -49
672 -70 995 -55 113 6 214 8 225 5 13 -4 39 -42 77 -118 322 -631 735 -1162
1173 -1505 450 -352 933 -533 1425 -533 167 0 287 15 485 62 177 42 283 80
465 166 165 79 454 276 610 416 142 128 347 345 449 475 233 298 400 558 577
898 38 73 76 135 85 138 10 3 113 1 230 -5 170 -8 270 -7 484 5 313 18 432 32
680 82 200 40 537 138 623 182 9 5 28 13 42 19 149 61 325 158 477 261 l92 63
48 -16 c337 -112 714 -8 950 261 93 106 155 225 200 383 25 89 24 337 -1 425
-23 80 -73 198 -110 260 -42 70 -139 178 -208 231 l-58 45 0 122 c1 284 -69
670 -180 1007 -36 110 -46 137 -76 205 -7 17 -29 71 -49 120 -21 50 -53 124
-72 165 -20 41 -39 84 -44 95 -13 28 -67 127 -150 275 -80 141 -79 141 -171
286 -38 58 -68 114 -68 124 0 10 30 66 68 124 90 143 88 139 161 268 97 170
201 378 260 518 29 69 59 139 66 155 30 71 39 96 75 205 111 337 181 723 180
1007 l0 122 58 44 c248 191 384 521 339 822 -28 186 -73 294 -180 435 -132
174 -311 286 -532 331 -149 31 -280 24 -442 -23 l-71 -20 -79 54 c-154 108
-354 216 -533 288 -30 12 -66 26 -80 32 -66 27 -247 81 -360 108 -447 104
-755 135 -1304 128 l-280 -3 -41 80 c-190 374 -359 641 -606 956 -102 130
-307 347 -449 475 -156 140 -445 337 -610 416 -96 45 -172 78 -237 101 -105
38 -327 93 -405 102 -49 5 -68 11 -68 21 0 12 -39 14 -240 14 -199 0 -240 -2
-240 -14z m445 -461 c207 -35 368 -83 515 -153 225 -108 431 -253 630 -446 96
-93 249 -258 300 -326 19 -25 41 -51 48 -59 7 -8 21 -26 30 -40 9 -14 31 -44
48 -66 66 -83 324 -489 324 -510 0 -2 14 -27 31 -56 43 -74 38 -92 -31 -101
-202 -24 -542 -89 -765 -145 -55 -14 -118 -29 -140 -33 -22 -4 -65 -14 -95
-23 -30 -8 -100 -27 -155 -42 -156 -41 -324 -92 -465 -141 -41 -14 -88 -29
-105 -34 -16 -5 -75 -25 -130 -45 -55 -21 -132 -48 -172 -62 l-72 -26 -93 33
c-51 18 -129 46 -173 62 -44 16 -93 33 -110 38 -16 5 -84 27 -150 50 -146 50
-477 143 -720 204 -33 8 -78 19 -100 25 -128 33 -678 134 -780 143 -20 2 -31
9 -33 21 -8 43 228 437 407 677 310 418 659 724 1026 899 291 140 660 201 930
156z m-3086 -2149 c8 -10 1 -39 -30 -122 -78 -208 -144 -396 -202 -579 -32
-102 -105 -363 -142 -505 -9 -36 -23 -87 -30 -115 -7 -27 -21 -84 -30 -125 -9
-41 -20 -91 -25 -110 -12 -47 -69 -359 -81 -440 -21 -153 -19 -149 -142 -251
-62 -51 -116 -98 -122 -103 -5 -6 -44 -40 -85 -76 -364 -314 -843 -812 -1149
-1195 -39 -49 -79 -94 -88 -99 -23 -13 -21 -17 -223 324 -15 25 -120 239 -120
244 0 3 -11 29 -24 58 -135 301 -226 635 -282 1033 -24 174 -26 169 71 176
232 18 411 94 572 243 85 79 147 163 197 271 95 202 115 403 60 610 -22 85
-78 206 -131 283 -12 19 -23 38 -23 42 0 11 73 57 175 110 303 159 593 242
1085 311 193 27 750 38 769 15z m6496 -11 c339 -44 646 -112 825 -183 177 -71
285 -122 388 -184 45 -27 82 -52 82 -55 0 -3 -17 -33 -38 -67 -117 -187 -166
-383 -142 -574 27 -220 109 -393 259 -543 168 -169 347 -249 596 -268 96 -7
95 -3 71 -166 -31 -209 -46 -289 -93 -485 -21 -87 -77 -272 -103 -340 -12 -30
-25 -66 -30 -80 -13 -40 -104 -249 -142 -325 -44 -90 -86 -165 -164 -295 -83
-137 -97 -155 -117 -144 -8 5 -61 65 -117 134 -302 370 -710 796 -1040 1089
-52 46 -113 100 -135 120 -22 20 -90 78 -152 129 -62 51 -114 100 -117 110 -3
9 -10 46 -16 82 -71 415 -129 693 -172 830 -6 19 -15 51 -19 70 -3 19 -14 60
-22 90 -9 30 -31 111 -51 180 -19 69 -49 168 -66 220 -18 52 -35 109 -40 125
-5 17 -18 55 -30 85 -11 30 -35 96 -52 145 -16 50 -45 128 -63 175 -47 120
-49 131 -34 142 21 14 592 1 734 -17z m-5866 -29 c47 -8 136 -22 196 -31 172
-25 375 -63 565 -106 52 -11 111 -24 130 -28 19 -4 51 -13 70 -19 19 -6 64
-18 100 -28 198 -51 513 -145 528 -157 17 -13 15 -27 -5 -34 -10 -3 -40 -16
-68 -28 -27 -13 -72 -33 -100 -45 -141 -62 -673 -334 -757 -387 -21 -12 -40
-23 -42 -23 -12 0 -444 -255 -601 -355 -151 -96 -527 -350 -585 -395 -19 -15
-46 -31 -59 -35 -23 -7 -24 -6 -18 36 9 57 21 121 37 184 6 28 19 77 27 110 8
33 20 83 28 110 7 28 20 75 28 105 79 295 138 476 267 820 34 91 69 183 77
205 8 22 19 44 24 50 5 5 9 16 9 25 0 22 20 40 43 40 11 0 58 -7 106 -14z
m4642 -6 c19 -38 83 -199 134 -340 31 -85 62 -170 70 -188 8 -18 15 -39 15
-47 0 -8 6 -29 14 -47 20 -48 70 -207 106 -338 18 -63 38 -135 45 -160 19 -67
50 -190 88 -345 26 -103 41 -194 34 -201 -10 -10 -40 7 -157 91 -191 138 -479
325 -743 485 -184 111 -268 159 -455 261 -24 13 -72 39 -105 58 -78 42 -614
311 -621 311 -3 0 -42 17 -86 38 -75 36 -80 40 -66 55 9 9 24 18 34 21 9 3 87
25 172 50 160 47 208 61 320 90 36 10 88 24 115 31 180 48 492 111 745 150 58
9 141 22 185 29 99 17 146 16 156 -4z m-7859 -519 c104 -40 196 -125 250 -231
31 -63 32 -69 32 -190 0 -121 -1 -127 -32 -190 -76 -151 -214 -245 -377 -257
-182 -14 -351 85 -436 255 -33 65 -33 70 -33 192 0 122 0 127 33 192 62 124
161 206 294 243 71 20 195 13 269 -14z m11250 0 c108 -41 192 -120 246 -231
35 -73 36 -78 37 -190 0 -112 -1 -117 -37 -190 -75 -153 -204 -242 -373 -257
-277 -25 -521 240 -474 515 31 178 157 318 330 367 73 20 196 14 271 -14z
m-5608 -151 c75 -32 147 -62 159 -66 12 -3 58 -23 102 -44 44 -21 123 -57 175
-81 181 -83 576 -283 750 -381 25 -14 72 -40 105 -58 33 -18 103 -59 155 -90
52 -31 102 -59 110 -63 8 -4 27 -15 42 -25 15 -9 60 -37 100 -61 124 -75 321
-204 568 -372 86 -58 367 -265 484 -357 88 -69 106 -88 106 -110 0 -15 6 -70
14 -122 25 -159 63 -521 76 -725 54 -841 26 -1762 -75 -2440 -8 -55 -15 -114
-15 -132 0 -28 -10 -39 -82 -96 -184 -143 -323 -245 -518 -382 -133 -94 -462
-308 -608 -396 -41 -24 -86 -51 -100 -60 -65 -39 -364 -209 -368 -209 -2 0
-23 -11 -45 -25 -49 -32 -567 -293 -699 -354 -172 -78 -193 -88 -355 -155 -88
-37 -173 -74 -188 -82 -54 -27 -95 -18 -298 70 -107 46 -231 100 -275 121 -43
20 -119 55 -169 78 -120 55 -590 293 -637 323 -21 13 -40 24 -42 24 -2 0 -80
43 -173 97 -92 53 -179 102 -193 110 -14 8 -37 22 -52 31 -15 9 -60 37 -100
61 -179 108 -550 356 -708 472 -36 26 -94 69 -130 96 -36 26 -122 92 -192 146
-108 83 -128 103 -128 125 0 15 -6 70 -14 122 -107 687 -135 1790 -65 2575 6
66 14 167 19 225 4 58 12 139 18 180 18 122 34 241 39 298 l5 52 117 92 c170
134 168 132 506 371 96 68 421 280 533 348 40 24 85 52 100 61 15 10 36 22 47
28 11 5 27 14 35 20 26 17 221 130 225 130 2 0 26 13 53 29 98 58 153 87 407
215 321 163 419 209 780 366 121 52 193 78 221 79 29 1 80 -16 178 -59z
m-3714 -2152 c0 -11 -6 -87 -14 -167 -32 -324 -41 -573 -41 -1101 0 -528 9
-777 41 -1101 17 -176 17 -189 3 -189 -29 0 -493 452 -668 650 -46 52 -98 111
-115 130 -47 52 -186 218 -231 275 -22 28 -42 52 -45 55 -18 15 -130 170 -130
180 0 24 243 327 448 560 230 260 706 730 739 730 7 0 13 -10 13 -22z m7184
-52 c115 -104 367 -353 477 -471 254 -272 619 -712 619 -745 0 -13 -18 -37
-139 -190 -72 -90 -229 -279 -241 -290 -3 -3 -36 -41 -75 -85 -38 -44 -99
-111 -136 -150 -36 -38 -95 -101 -130 -139 -97 -105 -451 -436 -466 -436 -17
0 -17 27 1 209 55 564 57 1505 5 2106 -22 259 -23 265 -9 265 7 0 49 -33 94
-74z m-8636 -1644 c10 -10 44 -51 77 -92 273 -343 764 -858 1080 -1133 44 -38
98 -86 120 -106 22 -20 76 -66 120 -101 144 -117 144 -116 159 -200 8 -41 19
-106 26 -145 51 -301 112 -574 185 -835 7 -25 20 -72 29 -105 46 -172 94 -331
121 -405 6 -19 18 -51 24 -70 7 -19 21 -62 32 -95 12 -33 50 -140 86 -239 54
-146 63 -180 52 -188 -21 -14 -590 -1 -734 17 -312 40 -532 87 -763 164 -128
43 -152 53 -280 112 -96 45 -252 136 -252 148 0 3 16 31 35 61 32 50 50 85 90
175 46 103 68 268 53 404 -29 286 -188 534 -436 684 -122 74 -254 114 -417
126 -97 7 -95 2 -71 176 37 264 94 519 166 735 36 110 46 137 76 205 7 17 19
46 27 65 102 237 226 469 330 618 34 47 40 49 65 24z m10049 -24 c27 -39 102
-163 163 -273 59 -105 185 -376 210 -455 5 -14 18 -50 30 -80 56 -145 129
-422 164 -625 29 -168 48 -310 44 -335 -3 -24 -7 -25 -83 -31 -251 -19 -426
-98 -596 -268 -79 -79 -174 -215 -191 -276 -4 -11 -16 -45 -28 -75 -11 -30
-28 -104 -36 -165 -14 -93 -14 -125 -4 -210 7 -55 19 -115 26 -134 8 -18 14
-40 14 -47 0 -21 64 -152 104 -214 20 -30 36 -58 36 -61 0 -11 -158 -105 -227
-135 -32 -14 -86 -39 -120 -55 -209 -97 -550 -181 -953 -234 -140 -18 -708
-31 -729 -17 -12 8 -5 34 37 149 28 76 65 179 82 228 17 50 37 106 45 125 21
54 101 312 136 440 17 63 37 135 44 160 72 254 147 605 205 960 7 41 16 82 20
90 5 9 54 54 111 100 56 47 110 92 118 100 9 8 55 48 101 89 351 306 750 718
1055 1086 143 173 171 205 185 205 4 0 20 -19 37 -42z m-7906 -1987 c143 -112
616 -422 904 -593 182 -108 228 -134 403 -229 24 -13 72 -39 105 -58 81 -44
538 -273 602 -301 28 -12 73 -32 100 -45 28 -12 58 -25 68 -29 14 -4 16 -10 8
-23 -6 -13 -66 -35 -193 -72 -220 -64 -254 -74 -338 -96 -36 -9 -87 -23 -115
-30 -181 -48 -490 -110 -740 -148 -55 -9 -150 -23 -212 -33 -92 -14 -114 -15
-127 -5 -9 8 -16 19 -16 26 0 7 -13 42 -29 77 -15 35 -56 140 -90 234 -34 93
-68 185 -75 204 -49 130 -153 479 -210 700 -8 30 -20 75 -27 100 -6 25 -15 61
-20 80 -4 19 -16 77 -28 129 -12 52 -21 103 -21 113 0 23 21 23 51 -1z m5749
1 c0 -10 -9 -61 -21 -113 -12 -52 -24 -110 -28 -129 -5 -19 -14 -55 -20 -80
-7 -25 -19 -72 -28 -105 -8 -33 -21 -80 -28 -105 -7 -25 -27 -97 -45 -160 -36
-131 -86 -290 -106 -338 -8 -18 -14 -39 -14 -47 0 -8 -7 -29 -15 -47 -8 -18
-42 -109 -76 -203 -34 -93 -75 -199 -91 -233 -15 -35 -28 -70 -28 -77 0 -7 -7
-18 -16 -25 -12 -11 -36 -10 -132 4 -283 43 -481 77 -597 101 -164 34 -267 58
-350 80 -27 7 -79 21 -115 30 -36 10 -85 23 -110 30 -25 7 -81 23 -125 35 -44
12 -91 25 -105 30 -14 5 -59 18 -100 30 -41 12 -81 28 -89 35 -16 16 -7 35 18
35 9 0 21 4 27 9 5 4 56 30 114 56 107 48 504 246 617 307 295 160 353 193
560 318 285 172 722 460 852 561 30 24 51 24 51 1z m-8368 -291 c104 -40 196
-125 250 -231 31 -63 32 -69 32 -190 0 -121 -1 -127 -32 -190 -53 -105 -145
-190 -250 -232 -46 -17 -77 -22 -157 -22 -116 0 -179 20 -263 83 -70 52 -105
93 -144 171 -31 63 -32 69 -32 190 0 122 0 127 33 192 62 124 161 206 294 243
71 20 195 13 269 -14z m11233 5 c110 -34 209 -123 263 -236 35 -73 36 -79 37
-190 0 -113 -1 -116 -37 -190 -56 -112 -137 -188 -246 -232 -85 -33 -234 -32
-317 3 -201 84 -319 285 -284 486 31 179 157 319 330 368 65 18 182 14 254 -9z
m-5629 -1302 c71 -25 147 -52 169 -60 22 -9 54 -19 70 -24 17 -5 62 -19 100
-33 189 -65 445 -139 770 -221 239 -60 653 -140 855 -164 69 -9 73 -23 29
-105 -86 -162 -276 -465 -353 -562 -17 -22 -39 -52 -48 -66 -9 -14 -23 -32
-30 -40 -7 -8 -29 -34 -48 -59 -111 -145 -360 -395 -515 -516 -104 -81 -283
-194 -380 -238 -33 -15 -76 -36 -95 -45 -84 -42 -280 -96 -455 -126 -271 -45
-636 16 -930 155 -102 49 -301 170 -390 239 -215 164 -443 402 -653 681 -87
116 -285 431 -356 567 -49 93 -46 106 24 115 120 14 452 72 585 102 33 8 96
21 140 31 44 9 94 22 110 27 17 6 48 14 70 18 22 4 65 14 95 23 30 8 100 27
155 42 130 34 423 123 437 131 6 4 24 10 42 15 28 7 198 66 381 133 39 14 75
25 81 26 6 0 69 -21 140 -46z"/>
<path d="M5547 10163 c-81 -24 -116 -69 -184 -233 -34 -80 -102 -244 -153
-365 -51 -121 -119 -285 -152 -365 -33 -80 -66 -158 -73 -175 -21 -49 -32 -75
-75 -180 -22 -55 -45 -108 -50 -117 -6 -10 -10 -22 -10 -28 0 -5 -13 -38 -29
-72 -28 -63 -107 -251 -196 -468 -26 -63 -53 -128 -60 -145 -52 -114 -65 -144
-65 -150 0 -8 -78 -194 -90 -217 -6 -10 -10 -22 -10 -28 0 -5 -13 -38 -29 -72
-40 -89 -88 -206 -102 -252 -9 -31 -9 -51 2 -95 11 -46 22 -65 65 -107 42 -41
61 -53 104 -61 88 -18 174 13 224 80 22 29 153 328 221 502 15 39 40 98 56
133 16 35 29 66 29 69 0 3 10 27 22 54 l23 49 584 2 c376 2 592 -1 604 -7 11
-6 39 -59 69 -130 28 -66 56 -133 63 -150 55 -128 115 -274 115 -280 0 -7 44
-106 65 -148 8 -16 15 -35 15 -43 0 -8 22 -37 49 -64 109 -109 265 -94 348 32
24 36 28 51 28 117 0 71 -4 86 -61 221 -79 184 -228 542 -306 730 -33 80 -66
159 -73 175 -50 117 -135 322 -135 329 0 3 -13 34 -29 68 -16 35 -56 128 -89
208 -162 390 -186 449 -207 495 -12 28 -26 60 -30 73 -3 12 -26 68 -51 124
-24 55 -44 105 -44 109 0 5 -13 37 -29 71 -15 35 -38 88 -51 118 -51 127 -93
171 -186 198 -49 14 -55 14 -117 -5z m138 -970 c33 -77 89 -209 123 -294 35
-85 70 -167 77 -184 7 -16 18 -41 23 -55 84 -198 102 -245 102 -261 0 -18 -16
-19 -387 -21 -254 -2 -392 1 -400 7 -10 8 1 43 48 155 33 80 81 195 106 255
51 125 67 162 88 208 18 41 90 215 117 285 11 29 25 51 31 49 7 -2 39 -67 72
-144z"/>
<path d="M7358 10165 c-65 -18 -104 -48 -138 -108 -58 -101 -26 -230 73 -295
l42 -27 250 -3 c239 -3 251 -4 268 -23 16 -20 17 -88 17 -1109 0 -1021 -1
-1089 -17 -1109 -17 -19 -29 -20 -268 -23 l-250 -3 -42 -27 c-59 -39 -103
-117 -103 -184 0 -106 76 -198 183 -223 70 -16 1370 -15 1435 1 86 21 141 70
171 151 33 88 -7 194 -97 256 -37 26 -37 26 -287 29 -156 2 -254 7 -262 14
-10 8 -13 233 -13 1118 0 885 3 1110 13 1118 8 7 106 12 262 14 250 3 250 3
287 29 90 62 130 168 97 256 -30 81 -85 130 -171 151 -70 18 -1385 15 -1450
-3z"/>
</g>
</svg>
